<svg width="11" height="8" viewBox="0 0 11 8" fill="none" xmlns="http://www.w3.org/2000/svg">
<path d="M6.641 4.828H1C0.734784 4.828 0.48043 4.72265 0.292893 4.53511C0.105357 4.34757 0 4.09322 0 3.828C0 3.56279 0.105357 3.30843 0.292893 3.1209C0.48043 2.93336 0.734784 2.828 1 2.828H6.641L5.521 1.708C5.3387 1.51953 5.23773 1.267 5.23982 1.0048C5.24191 0.742595 5.3469 0.491706 5.53218 0.306165C5.71746 0.120624 5.9682 0.0152777 6.2304 0.0128157C6.49259 0.0103538 6.74527 0.110973 6.934 0.293002L9.763 3.12C9.85634 3.21267 9.93041 3.3229 9.98096 3.44432C10.0315 3.56575 10.0575 3.69598 10.0575 3.8275C10.0575 3.95903 10.0315 4.08926 9.98096 4.21068C9.93041 4.33211 9.85634 4.44233 9.763 4.535L6.934 7.363C6.74468 7.54079 6.49361 7.63795 6.23392 7.63392C5.97424 7.62988 5.72631 7.52498 5.54259 7.34139C5.35888 7.15781 5.2538 6.90995 5.24958 6.65027C5.24537 6.39059 5.34234 6.13945 5.52 5.95L6.641 4.828Z" fill="url(#paint0_linear)"/>
<defs>
<linearGradient id="paint0_linear" x1="0" y1="3.8234" x2="10.0575" y2="3.8234" gradientUnits="userSpaceOnUse">
<stop stop-color="#FF7345"/>
<stop offset="1" stop-color="#FF3E7A"/>
</linearGradient>
</defs>
</svg>
