<svg width="20" height="12" viewBox="0 0 20 12" fill="none" xmlns="http://www.w3.org/2000/svg">
<path d="M18 6.00002C18 4.19002 14.24 2.01502 9.993 2.00002C5.775 1.98502 2 4.17802 2 6.00002C2 7.82502 5.754 10.006 9.997 10C14.252 9.99402 18 7.82002 18 6.00002ZM10 12C4.958 12.007 0 9.31402 0 6.00002C0 2.68602 4.984 -0.0169813 10 1.87168e-05C15.016 0.0170187 20 2.68602 20 6.00002C20 9.31402 15.042 11.993 10 12ZM10 10C8.93913 10 7.92172 9.57859 7.17157 8.82845C6.42143 8.0783 6 7.06088 6 6.00002C6 4.93915 6.42143 3.92174 7.17157 3.17159C7.92172 2.42145 8.93913 2.00002 10 2.00002C11.0609 2.00002 12.0783 2.42145 12.8284 3.17159C13.5786 3.92174 14 4.93915 14 6.00002C14 7.06088 13.5786 8.0783 12.8284 8.82845C12.0783 9.57859 11.0609 10 10 10ZM10 8.00002C10.5304 8.00002 11.0391 7.78931 11.4142 7.41423C11.7893 7.03916 12 6.53045 12 6.00002C12 5.46959 11.7893 4.96088 11.4142 4.5858C11.0391 4.21073 10.5304 4.00002 10 4.00002C9.46957 4.00002 8.96086 4.21073 8.58579 4.5858C8.21071 4.96088 8 5.46959 8 6.00002C8 6.53045 8.21071 7.03916 8.58579 7.41423C8.96086 7.78931 9.46957 8.00002 10 8.00002Z" fill="#828282"/>
</svg>
