<svg width="14" height="14" viewBox="0 0 14 14" fill="none" xmlns="http://www.w3.org/2000/svg">
<path d="M1.72001 1.66665L6.04134 7.06731C6.2305 7.30386 6.33348 7.59777 6.33334 7.90065V12.3333L7.66668 11.3333V7.89998C7.66669 7.59733 7.76966 7.30368 7.95868 7.06731L12.28 1.66665H1.72068H1.72001ZM1.72001 0.333313H12.28C12.5312 0.333344 12.7773 0.404329 12.9899 0.53809C13.2025 0.671851 13.373 0.862949 13.4817 1.08937C13.5905 1.31579 13.6331 1.56833 13.6046 1.81789C13.5761 2.06746 13.4777 2.3039 13.3207 2.49998L9.00001 7.89998V11.3333C9.00001 11.5403 8.95182 11.7445 8.85925 11.9296C8.76667 12.1147 8.63227 12.2758 8.46668 12.4L7.13334 13.4C6.93525 13.5485 6.6997 13.639 6.45308 13.6613C6.20647 13.6835 5.95853 13.6366 5.73706 13.5259C5.51558 13.4151 5.32932 13.2449 5.19914 13.0343C5.06896 12.8237 5.00001 12.5809 5.00001 12.3333V7.89998L0.679342 2.49998C0.522351 2.3039 0.423941 2.06746 0.395448 1.81789C0.366954 1.56833 0.409536 1.31579 0.518288 1.08937C0.627041 0.862949 0.79754 0.671851 1.01015 0.53809C1.22276 0.404329 1.46882 0.333344 1.72001 0.333313V0.333313Z" fill="#BDBDBD"/>
</svg>
