<svg width="20" height="20" viewBox="0 0 20 20" fill="none" xmlns="http://www.w3.org/2000/svg">
<path d="M12.738 5.97199L3.7 15.01L3.109 17.026L5.084 16.455L14.152 7.38699L12.738 5.97199ZM14.28 4.42999L15.694 5.84399L17.012 4.52599C17.1057 4.43223 17.1584 4.30508 17.1584 4.17249C17.1584 4.03991 17.1057 3.91276 17.012 3.81899L16.304 3.11199C16.2102 3.01826 16.0831 2.9656 15.9505 2.9656C15.8179 2.9656 15.6908 3.01826 15.597 3.11199L14.281 4.42999H14.28ZM17.719 1.69799L18.426 2.40499C18.8947 2.87381 19.158 3.50958 19.158 4.17249C19.158 4.8354 18.8947 5.47117 18.426 5.93999L6.134 18.233L1.914 19.453C1.74199 19.5026 1.55982 19.5051 1.38651 19.4603C1.2132 19.4154 1.0551 19.3249 0.928716 19.1981C0.802335 19.0713 0.712307 18.9129 0.668031 18.7395C0.623755 18.566 0.626854 18.3838 0.677004 18.212L1.925 13.957L14.185 1.69699C14.6538 1.22832 15.2896 0.965027 15.9525 0.965027C16.6154 0.965027 17.2512 1.22832 17.72 1.69699L17.719 1.69799Z" fill="#0091FF"/>
</svg>
