<svg width="16" height="16" viewBox="0 0 16 16" fill="none" xmlns="http://www.w3.org/2000/svg">
<path d="M8 15.5C3.85775 15.5 0.5 12.1422 0.5 8C0.5 3.85775 3.85775 0.5 8 0.5C12.1422 0.5 15.5 3.85775 15.5 8C15.5 12.1422 12.1422 15.5 8 15.5ZM8 14C9.5913 14 11.1174 13.3679 12.2426 12.2426C13.3679 11.1174 14 9.5913 14 8C14 6.4087 13.3679 4.88258 12.2426 3.75736C11.1174 2.63214 9.5913 2 8 2C6.4087 2 4.88258 2.63214 3.75736 3.75736C2.63214 4.88258 2 6.4087 2 8C2 9.5913 2.63214 11.1174 3.75736 12.2426C4.88258 13.3679 6.4087 14 8 14V14ZM8.75 8.75V11.75C8.75 11.9489 8.67098 12.1397 8.53033 12.2803C8.38968 12.421 8.19891 12.5 8 12.5C7.80109 12.5 7.61032 12.421 7.46967 12.2803C7.32902 12.1397 7.25 11.9489 7.25 11.75V8.75H4.25C4.05109 8.75 3.86032 8.67098 3.71967 8.53033C3.57902 8.38968 3.5 8.19891 3.5 8C3.5 7.80109 3.57902 7.61032 3.71967 7.46967C3.86032 7.32902 4.05109 7.25 4.25 7.25H7.25V4.25C7.25 4.05109 7.32902 3.86032 7.46967 3.71967C7.61032 3.57902 7.80109 3.5 8 3.5C8.19891 3.5 8.38968 3.57902 8.53033 3.71967C8.67098 3.86032 8.75 4.05109 8.75 4.25V7.25H11.75C11.9489 7.25 12.1397 7.32902 12.2803 7.46967C12.421 7.61032 12.5 7.80109 12.5 8C12.5 8.19891 12.421 8.38968 12.2803 8.53033C12.1397 8.67098 11.9489 8.75 11.75 8.75H8.75Z" fill="url(#paint0_linear)"/>
<defs>
<linearGradient id="paint0_linear" x1="0.5" y1="8" x2="15.5" y2="8" gradientUnits="userSpaceOnUse">
<stop stop-color="#FF7345"/>
<stop offset="1" stop-color="#FF3E7A"/>
</linearGradient>
</defs>
</svg>
