<svg width="12" height="14" viewBox="0 0 12 14" fill="none" xmlns="http://www.w3.org/2000/svg">
<path d="M4 10.3333H1.33333C0.979711 10.3333 0.640573 10.1928 0.390524 9.94279C0.140476 9.69274 0 9.3536 0 8.99998V1.66665C0 1.31302 0.140476 0.973886 0.390524 0.723837C0.640573 0.473789 0.979711 0.333313 1.33333 0.333313L6.66667 0.333313C7.02029 0.333313 7.35943 0.473789 7.60948 0.723837C7.85952 0.973886 8 1.31302 8 1.66665V3.66665H10L12 5.66665V12.3333C12 12.6869 11.8595 13.0261 11.6095 13.2761C11.3594 13.5262 11.0203 13.6666 10.6667 13.6666H5.33333C4.97971 13.6666 4.64057 13.5262 4.39052 13.2761C4.14048 13.0261 4 12.6869 4 12.3333V10.3333ZM4 8.99998V4.99998C4 4.64636 4.14048 4.30722 4.39052 4.05717C4.64057 3.80712 4.97971 3.66665 5.33333 3.66665H6.66667V1.66665H1.33333V8.99998H4ZM9.448 4.99998H5.33333V12.3333H10.6667V6.21865L9.448 4.99998Z" fill="#BDBDBD"/>
</svg>
