<svg width="18" height="20" viewBox="0 0 18 20" fill="none" xmlns="http://www.w3.org/2000/svg">
<path d="M6 2V1C6 0.734784 6.10536 0.48043 6.29289 0.292893C6.48043 0.105357 6.73478 0 7 0L11 0C11.2652 0 11.5196 0.105357 11.7071 0.292893C11.8946 0.48043 12 0.734784 12 1V2H16C16.5304 2 17.0391 2.21071 17.4142 2.58579C17.7893 2.96086 18 3.46957 18 4V5C18 5.53043 17.7893 6.03914 17.4142 6.41421C17.0391 6.78929 16.5304 7 16 7H15.867L15.187 17.2C15.1363 17.9593 14.7989 18.6709 14.2432 19.1908C13.6875 19.7107 12.955 19.9999 12.194 20H5.826C5.06567 20 4.33372 19.7113 3.77811 19.1922C3.2225 18.6732 2.8847 17.9626 2.833 17.204L2.137 7H2C1.46957 7 0.960859 6.78929 0.585786 6.41421C0.210714 6.03914 0 5.53043 0 5V4C0 3.46957 0.210714 2.96086 0.585786 2.58579C0.960859 2.21071 1.46957 2 2 2H6ZM16 4H2V5H16V4ZM4.141 7L4.828 17.068C4.84524 17.3209 4.95789 17.5578 5.14316 17.7309C5.32843 17.9039 5.5725 18.0001 5.826 18H12.194C12.4478 18 12.6922 17.9036 12.8775 17.7301C13.0628 17.5567 13.1752 17.3193 13.192 17.066L13.862 7H4.142H4.141ZM7 8C7.26522 8 7.51957 8.10536 7.70711 8.29289C7.89464 8.48043 8 8.73478 8 9V16C8 16.2652 7.89464 16.5196 7.70711 16.7071C7.51957 16.8946 7.26522 17 7 17C6.73478 17 6.48043 16.8946 6.29289 16.7071C6.10536 16.5196 6 16.2652 6 16V9C6 8.73478 6.10536 8.48043 6.29289 8.29289C6.48043 8.10536 6.73478 8 7 8ZM11 8C11.2652 8 11.5196 8.10536 11.7071 8.29289C11.8946 8.48043 12 8.73478 12 9V16C12 16.2652 11.8946 16.5196 11.7071 16.7071C11.5196 16.8946 11.2652 17 11 17C10.7348 17 10.4804 16.8946 10.2929 16.7071C10.1054 16.5196 10 16.2652 10 16V9C10 8.73478 10.1054 8.48043 10.2929 8.29289C10.4804 8.10536 10.7348 8 11 8Z" fill="#EB5757"/>
</svg>
