<svg width="14" height="14" viewBox="0 0 14 14" fill="none" xmlns="http://www.w3.org/2000/svg">
<path d="M2.68934 7.38C2.77131 7.34503 2.85945 7.32684 2.94856 7.32652C3.03767 7.3262 3.12595 7.34375 3.20816 7.37812C3.29038 7.4125 3.36486 7.46301 3.42722 7.52667C3.48958 7.59033 3.53854 7.66585 3.57122 7.74876C3.60389 7.83166 3.61961 7.92028 3.61744 8.00936C3.61528 8.09845 3.59528 8.1862 3.55862 8.26742C3.52197 8.34865 3.4694 8.4217 3.40402 8.48226C3.33865 8.54282 3.2618 8.58965 3.17801 8.62C2.73237 8.79559 2.3499 9.10124 2.08035 9.49718C1.8108 9.89312 1.66666 10.361 1.66668 10.84V12C1.66668 12.1768 1.73691 12.3464 1.86194 12.4714C1.98696 12.5964 2.15653 12.6667 2.33334 12.6667H7.66668C7.84349 12.6667 8.01306 12.5964 8.13808 12.4714C8.26311 12.3464 8.33334 12.1768 8.33334 12V10.902C8.33342 10.4077 8.18325 9.92495 7.90275 9.51789C7.62225 9.11082 7.22465 8.79862 6.76268 8.62267C6.67837 8.59341 6.6008 8.54753 6.53455 8.48773C6.46831 8.42794 6.41474 8.35546 6.37703 8.27458C6.33932 8.1937 6.31822 8.10607 6.31501 8.01689C6.31179 7.92771 6.32651 7.83879 6.35829 7.7554C6.39007 7.67202 6.43827 7.59586 6.50004 7.53145C6.5618 7.46703 6.63586 7.41568 6.71784 7.38042C6.79982 7.34516 6.88804 7.32672 6.97728 7.32619C7.06652 7.32566 7.15495 7.34305 7.23734 7.37733C7.95175 7.64945 8.5666 8.13222 9.00044 8.76167C9.43428 9.39111 9.66662 10.1375 9.66668 10.902V12C9.66668 12.5304 9.45596 13.0391 9.08089 13.4142C8.70582 13.7893 8.19711 14 7.66668 14H2.33334C1.80291 14 1.2942 13.7893 0.91913 13.4142C0.544057 13.0391 0.333344 12.5304 0.333344 12L0.333344 10.84C0.333435 10.0934 0.558195 9.36418 0.978384 8.74709C1.39857 8.13001 1.99474 7.65365 2.68934 7.38V7.38ZM5.00001 0.666667C5.70725 0.666667 6.38553 0.947618 6.88563 1.44772C7.38573 1.94781 7.66668 2.62609 7.66668 3.33333V4.66667C7.66668 5.37391 7.38573 6.05219 6.88563 6.55229C6.38553 7.05238 5.70725 7.33333 5.00001 7.33333C4.29277 7.33333 3.61449 7.05238 3.11439 6.55229C2.6143 6.05219 2.33334 5.37391 2.33334 4.66667V3.33333C2.33334 2.62609 2.6143 1.94781 3.11439 1.44772C3.61449 0.947618 4.29277 0.666667 5.00001 0.666667V0.666667ZM5.00001 2C4.64639 2 4.30725 2.14048 4.0572 2.39052C3.80715 2.64057 3.66668 2.97971 3.66668 3.33333V4.66667C3.66668 5.02029 3.80715 5.35943 4.0572 5.60948C4.30725 5.85952 4.64639 6 5.00001 6C5.35363 6 5.69277 5.85952 5.94282 5.60948C6.19287 5.35943 6.33334 5.02029 6.33334 4.66667V3.33333C6.33334 2.97971 6.19287 2.64057 5.94282 2.39052C5.69277 2.14048 5.35363 2 5.00001 2ZM11 13.3333C10.8232 13.3333 10.6536 13.2631 10.5286 13.1381C10.4036 13.013 10.3333 12.8435 10.3333 12.6667C10.3333 12.4899 10.4036 12.3203 10.5286 12.1953C10.6536 12.0702 10.8232 12 11 12H11.6667C11.8435 12 12.0131 11.9298 12.1381 11.8047C12.2631 11.6797 12.3333 11.5101 12.3333 11.3333V10.108C12.3333 9.6341 12.1842 9.17222 11.9071 8.78779C11.63 8.40336 11.2389 8.11585 10.7893 7.966C10.7063 7.93834 10.6294 7.89458 10.5633 7.83722C10.4971 7.77987 10.4429 7.71004 10.4037 7.63173C10.3645 7.55342 10.3411 7.46816 10.3349 7.38081C10.3286 7.29347 10.3397 7.20575 10.3673 7.12267C10.395 7.03958 10.4388 6.96276 10.4961 6.89659C10.5535 6.83042 10.6233 6.77619 10.7016 6.73701C10.7799 6.69782 10.8652 6.67444 10.9525 6.66821C11.0399 6.66197 11.1276 6.673 11.2107 6.70067C11.9259 6.93898 12.5479 7.39631 12.9887 8.00786C13.4295 8.6194 13.6667 9.35415 13.6667 10.108V11.3333C13.6667 11.8638 13.456 12.3725 13.0809 12.7475C12.7058 13.1226 12.1971 13.3333 11.6667 13.3333H11ZM9.00001 1.33333C8.8232 1.33333 8.65363 1.2631 8.52861 1.13807C8.40358 1.01305 8.33334 0.843478 8.33334 0.666667C8.33334 0.489856 8.40358 0.320286 8.52861 0.195262C8.65363 0.0702379 8.8232 0 9.00001 0C9.70725 0 10.3855 0.280952 10.8856 0.781049C11.3857 1.28115 11.6667 1.95942 11.6667 2.66667V4C11.6667 4.70724 11.3857 5.38552 10.8856 5.88562C10.3855 6.38572 9.70725 6.66667 9.00001 6.66667C8.8232 6.66667 8.65363 6.59643 8.52861 6.4714C8.40358 6.34638 8.33334 6.17681 8.33334 6C8.33334 5.82319 8.40358 5.65362 8.52861 5.5286C8.65363 5.40357 8.8232 5.33333 9.00001 5.33333C9.35363 5.33333 9.69277 5.19286 9.94282 4.94281C10.1929 4.69276 10.3333 4.35362 10.3333 4V2.66667C10.3333 2.31304 10.1929 1.97391 9.94282 1.72386C9.69277 1.47381 9.35363 1.33333 9.00001 1.33333Z" fill="#BDBDBD"/>
</svg>
